<?xml version="1.0" encoding="utf-8"?>
<!-- Generator: Adobe Illustrator 26.4.1, SVG Export Plug-In . SVG Version: 6.00 Build 0)  -->
<!DOCTYPE svg PUBLIC "-//W3C//DTD SVG 1.1//EN" "http://www.w3.org/Graphics/SVG/1.1/DTD/svg11.dtd" [
	<!ENTITY ns_extend "http://ns.adobe.com/Extensibility/1.0/">
	<!ENTITY ns_ai "http://ns.adobe.com/AdobeIllustrator/10.0/">
	<!ENTITY ns_graphs "http://ns.adobe.com/Graphs/1.0/">
	<!ENTITY ns_vars "http://ns.adobe.com/Variables/1.0/">
	<!ENTITY ns_imrep "http://ns.adobe.com/ImageReplacement/1.0/">
	<!ENTITY ns_sfw "http://ns.adobe.com/SaveForWeb/1.0/">
	<!ENTITY ns_custom "http://ns.adobe.com/GenericCustomNamespace/1.0/">
	<!ENTITY ns_adobe_xpath "http://ns.adobe.com/XPath/1.0/">
]>
<svg version="1.1" id="Layer_1" xmlns:x="&ns_extend;" xmlns:i="&ns_ai;" xmlns:graph="&ns_graphs;"
	 xmlns="http://www.w3.org/2000/svg" xmlns:xlink="http://www.w3.org/1999/xlink" x="0px" y="0px" viewBox="0 0 907.2 155.8"
	 style="enable-background:new 0 0 907.2 155.8;" xml:space="preserve">
<style type="text/css">
	.st0{fill-rule:evenodd;clip-rule:evenodd;fill:#B4B4B4;}
	.st1{fill-rule:evenodd;clip-rule:evenodd;fill:#ED2124;}
</style>
<metadata>
	<sfw  xmlns="&ns_sfw;">
		<slices></slices>
		<sliceSourceBounds  bottomLeftOrigin="true" height="155.8" width="907.2" x="0" y="10.1"></sliceSourceBounds>
	</sfw>
</metadata>
<g>
	<path class="st0" d="M169.7,117.5c-35.2,12.8-70.4,25.5-105.6,38.3l21.4-4.7c11.9,2.4,24.6,3.7,37.8,3.7
		c68.1,0,123.2-34.4,123.2-76.9c0-29.3-26.3-54.8-64.9-67.8c-3.2,21-15.7,29.5-37.4,37.4L49.9,84.9l91.8-30.7
		C211.4,28.7,236.5,93.3,169.7,117.5z"/>
	<path class="st1" d="M81.3,36.5C115,24.3,148.7,12.2,182.4,0L161,4.7C149.1,2.3,136.4,1,123.2,1C55.2,1,0,35.4,0,77.9
		c0,29.5,26.7,55.2,65.9,68.1c5.3-23.4,16.3-30.5,40.9-39.5L197,70.8l-96.3,32.3C32,128.1,15.4,60.3,81.3,36.5z"/>
</g>
<g>
	<path class="st0" d="M282.5,144.9v-34.6h13.1c2.3,0,4,0.1,5.3,0.3c1.7,0.3,3.1,0.8,4.3,1.6c1.2,0.8,2.1,1.9,2.8,3.3
		c0.7,1.4,1,3,1,4.7c0,2.9-0.9,5.4-2.8,7.4c-1.9,2-5.3,3.1-10.2,3.1h-8.9v14.2H282.5L282.5,144.9z M287.1,126.7h8.9
		c3,0,5.1-0.5,6.3-1.7c1.2-1.1,1.9-2.6,1.9-4.7c0-1.4-0.4-2.7-1.1-3.7s-1.7-1.7-2.9-2c-0.8-0.2-2.2-0.3-4.3-0.3h-8.8V126.7
		L287.1,126.7z M314.8,144.9v-34.6h15.3c3.1,0,5.4,0.3,7,0.9s2.9,1.7,3.8,3.3c1,1.6,1.4,3.3,1.4,5.2c0,2.5-0.8,4.5-2.4,6.2
		s-4,2.7-7.4,3.2c1.2,0.6,2.1,1.2,2.8,1.7c1.3,1.2,2.6,2.8,3.8,4.6l6,9.4h-5.7l-4.6-7.2c-1.3-2.1-2.4-3.7-3.3-4.8s-1.6-1.9-2.3-2.3
		c-0.7-0.4-1.4-0.7-2.1-0.9c-0.5-0.1-1.4-0.2-2.5-0.2h-5.3v15.5H314.8L314.8,144.9z M319.4,125.6h9.8c2.1,0,3.7-0.2,4.9-0.7
		c1.2-0.4,2.1-1.1,2.7-2.1s0.9-2,0.9-3.1c0-1.6-0.6-3-1.8-4c-1.2-1.1-3.1-1.6-5.6-1.6h-10.9V125.6L319.4,125.6z M348.2,128.1
		c0-5.7,1.5-10.2,4.6-13.5c3.1-3.2,7.1-4.9,11.9-4.9c3.2,0,6.1,0.8,8.6,2.3c2.6,1.5,4.5,3.6,5.9,6.4c1.3,2.7,2,5.8,2,9.3
		c0,3.5-0.7,6.6-2.1,9.4s-3.4,4.9-6,6.3s-5.4,2.1-8.4,2.1c-3.3,0-6.2-0.8-8.7-2.4c-2.6-1.6-4.5-3.7-5.8-6.4
		C348.9,134,348.2,131.1,348.2,128.1L348.2,128.1z M352.9,128.1c0,4.2,1.1,7.4,3.4,9.8c2.2,2.4,5,3.6,8.4,3.6s6.3-1.2,8.5-3.6
		c2.2-2.4,3.3-5.8,3.3-10.3c0-2.8-0.5-5.3-1.4-7.4c-1-2.1-2.3-3.7-4.2-4.9c-1.8-1.2-3.9-1.7-6.2-1.7c-3.2,0-6,1.1-8.4,3.3
		C354.1,119.3,352.9,123,352.9,128.1L352.9,128.1z M387.4,144.9v-34.6h23.3v4.1H392v10.8h16.2v4.1H392v15.6H387.4L387.4,144.9z
		 M416.8,144.9v-34.6h25v4.1h-20.4V125h19.1v4.1h-19.1v11.8h21.2v4.1h-25.8V144.9z M447.4,133.8l4.3-0.4c0.2,1.7,0.7,3.2,1.4,4.3
		c0.7,1.1,1.9,2,3.5,2.7c1.6,0.7,3.3,1,5.3,1c1.7,0,3.3-0.3,4.6-0.8c1.3-0.5,2.3-1.2,3-2.1s1-1.9,1-3s-0.3-2-0.9-2.8
		c-0.6-0.8-1.7-1.5-3.1-2c-0.9-0.4-3-0.9-6.2-1.7c-3.2-0.8-5.4-1.5-6.7-2.2c-1.7-0.9-2.9-1.9-3.7-3.2c-0.8-1.3-1.2-2.7-1.2-4.3
		c0-1.8,0.5-3.4,1.5-4.9s2.4-2.7,4.3-3.5s4-1.2,6.3-1.2c2.6,0,4.8,0.4,6.8,1.2c2,0.8,3.5,2,4.5,3.6c1.1,1.6,1.6,3.4,1.7,5.5
		l-4.4,0.3c-0.2-2.2-1-3.8-2.4-4.9s-3.4-1.7-6-1.7c-2.8,0-4.8,0.5-6.1,1.5c-1.3,1-1.9,2.2-1.9,3.7c0,1.2,0.5,2.3,1.3,3.1
		c0.9,0.8,3.2,1.6,6.9,2.5c3.7,0.8,6.3,1.6,7.7,2.2c2,0.9,3.5,2.1,4.5,3.5s1.4,3.1,1.4,4.9s-0.5,3.6-1.6,5.2
		c-1.1,1.6-2.6,2.9-4.5,3.8c-2,0.9-4.2,1.4-6.7,1.4c-3.1,0-5.7-0.5-7.8-1.4c-2.1-0.9-3.8-2.3-5-4.1
		C448.1,138.2,447.5,136.1,447.4,133.8L447.4,133.8z M479.6,133.8l4.3-0.4c0.2,1.7,0.7,3.2,1.4,4.3c0.7,1.1,1.9,2,3.5,2.7
		c1.6,0.7,3.3,1,5.3,1c1.7,0,3.3-0.3,4.6-0.8c1.3-0.5,2.3-1.2,3-2.1s1-1.9,1-3s-0.3-2-0.9-2.8c-0.6-0.8-1.7-1.5-3.1-2
		c-0.9-0.4-3-0.9-6.2-1.7c-3.2-0.8-5.4-1.5-6.7-2.2c-1.7-0.9-2.9-1.9-3.7-3.2c-0.8-1.3-1.2-2.7-1.2-4.3c0-1.8,0.5-3.4,1.5-4.9
		s2.4-2.7,4.3-3.5s4-1.2,6.3-1.2c2.6,0,4.8,0.4,6.8,1.2c2,0.8,3.5,2,4.5,3.6c1.1,1.6,1.6,3.4,1.7,5.5l-4.4,0.3
		c-0.2-2.2-1-3.8-2.4-4.9s-3.4-1.7-6-1.7c-2.8,0-4.8,0.5-6.1,1.5c-1.3,1-1.9,2.2-1.9,3.7c0,1.2,0.5,2.3,1.3,3.1
		c0.9,0.8,3.2,1.6,6.9,2.5c3.7,0.8,6.3,1.6,7.7,2.2c2,0.9,3.5,2.1,4.5,3.5s1.4,3.1,1.4,4.9s-0.5,3.6-1.6,5.2
		c-1.1,1.6-2.6,2.9-4.5,3.8c-2,0.9-4.2,1.4-6.7,1.4c-3.1,0-5.7-0.5-7.8-1.4c-2.1-0.9-3.8-2.3-5-4.1
		C480.3,138.2,479.7,136.1,479.6,133.8L479.6,133.8z M514.1,144.9v-34.6h4.6v34.6H514.1L514.1,144.9z M525.4,128.1
		c0-5.7,1.5-10.2,4.6-13.5c3.1-3.2,7.1-4.9,11.9-4.9c3.2,0,6.1,0.8,8.6,2.3c2.6,1.5,4.5,3.6,5.9,6.4c1.3,2.7,2,5.8,2,9.3
		c0,3.5-0.7,6.6-2.1,9.4c-1.4,2.8-3.4,4.9-6,6.3s-5.4,2.1-8.4,2.1c-3.3,0-6.2-0.8-8.7-2.4c-2.6-1.6-4.5-3.7-5.8-6.4
		C526,134,525.4,131.1,525.4,128.1L525.4,128.1z M530.1,128.1c0,4.2,1.1,7.4,3.4,9.8c2.2,2.4,5,3.6,8.4,3.6s6.3-1.2,8.5-3.6
		c2.2-2.4,3.3-5.8,3.3-10.3c0-2.8-0.5-5.3-1.4-7.4c-1-2.1-2.3-3.7-4.2-4.9c-1.8-1.2-3.9-1.7-6.2-1.7c-3.2,0-6,1.1-8.4,3.3
		C531.3,119.3,530.1,123,530.1,128.1L530.1,128.1z M564.3,144.9v-34.6h4.7l18.1,27.1v-27.1h4.4v34.6h-4.7l-18.1-27.1v27.1H564.3
		L564.3,144.9z M595.4,144.9l13.3-34.6h5l14.1,34.6h-5.2l-4-10.5H604l-3.8,10.5H595.4L595.4,144.9z M605.4,130.7h11.8l-3.6-9.6
		c-1.1-2.9-1.9-5.3-2.5-7.2c-0.5,2.3-1.1,4.5-1.9,6.7L605.4,130.7L605.4,130.7z M631.3,144.9v-34.6h4.6v30.5h17v4.1H631.3
		L631.3,144.9z M668.4,133.8l4.3-0.4c0.2,1.7,0.7,3.2,1.4,4.3s1.9,2,3.5,2.7c1.6,0.7,3.3,1,5.3,1c1.7,0,3.3-0.3,4.6-0.8
		s2.3-1.2,3-2.1s1-1.9,1-3s-0.3-2-0.9-2.8c-0.6-0.8-1.7-1.5-3.1-2c-0.9-0.4-3-0.9-6.2-1.7c-3.2-0.8-5.4-1.5-6.7-2.2
		c-1.7-0.9-2.9-1.9-3.7-3.2s-1.2-2.7-1.2-4.3c0-1.8,0.5-3.4,1.5-4.9s2.4-2.7,4.3-3.5c1.9-0.8,4-1.2,6.3-1.2c2.6,0,4.8,0.4,6.8,1.2
		c2,0.8,3.5,2,4.5,3.6c1.1,1.6,1.6,3.4,1.7,5.5l-4.4,0.3c-0.2-2.2-1-3.8-2.4-4.9s-3.4-1.7-6-1.7c-2.8,0-4.8,0.5-6.1,1.5
		s-1.9,2.2-1.9,3.7c0,1.2,0.5,2.3,1.3,3.1c0.9,0.8,3.2,1.6,6.9,2.5c3.7,0.8,6.3,1.6,7.7,2.2c2,0.9,3.5,2.1,4.5,3.5s1.4,3.1,1.4,4.9
		s-0.5,3.6-1.6,5.2c-1.1,1.6-2.6,2.9-4.5,3.8c-2,0.9-4.2,1.4-6.7,1.4c-3.1,0-5.7-0.5-7.8-1.4s-3.8-2.3-5-4.1
		C669.1,138.2,668.5,136.1,668.4,133.8L668.4,133.8z M702.3,144.9v-34.6h25v4.1h-20.4V125H726v4.1h-19.1v11.8h21.2v4.1h-25.8V144.9z
		 M734.5,144.9v-34.6h15.3c3.1,0,5.4,0.3,7,0.9s2.9,1.7,3.8,3.3c1,1.6,1.4,3.3,1.4,5.2c0,2.5-0.8,4.5-2.4,6.2
		c-1.6,1.7-4,2.7-7.4,3.2c1.2,0.6,2.1,1.2,2.8,1.7c1.3,1.2,2.6,2.8,3.8,4.6l6,9.4h-5.7l-4.6-7.2c-1.3-2.1-2.4-3.7-3.3-4.8
		c-0.9-1.1-1.6-1.9-2.3-2.3s-1.4-0.7-2.1-0.9c-0.5-0.1-1.4-0.2-2.5-0.2H739v15.5H734.5L734.5,144.9z M739.1,125.6h9.8
		c2.1,0,3.7-0.2,4.9-0.7c1.2-0.4,2.1-1.1,2.7-2.1c0.6-1,0.9-2,0.9-3.1c0-1.6-0.6-3-1.8-4c-1.2-1.1-3.1-1.6-5.6-1.6h-10.9
		L739.1,125.6L739.1,125.6z M778.3,144.9h4.8l13.5-34.6h-4.7l-9.3,25.1c-0.7,1.9-1.3,3.8-1.9,5.7c-0.5-1.8-1.1-3.6-1.8-5.7l-9-25.1
		h-5L778.3,144.9L778.3,144.9z M801.4,144.9v-34.6h4.6v34.6H801.4L801.4,144.9z M838.7,132.8l4.6,1.2c-1,3.8-2.7,6.6-5.2,8.6
		s-5.5,3-9.1,3c-3.7,0-6.7-0.8-9.1-2.3c-2.3-1.5-4.1-3.7-5.3-6.6c-1.2-2.9-1.8-6-1.8-9.3c0-3.6,0.7-6.7,2.1-9.4
		c1.4-2.7,3.3-4.7,5.9-6.1c2.5-1.4,5.3-2.1,8.4-2.1c3.5,0,6.4,0.9,8.7,2.6c2.4,1.8,4,4.2,4.9,7.4l-4.5,1.1c-0.8-2.5-2-4.3-3.5-5.5
		s-3.4-1.7-5.7-1.7c-2.6,0-4.9,0.6-6.7,1.9s-3,3-3.8,5.1c-0.7,2.1-1.1,4.4-1.1,6.6c0,2.9,0.4,5.5,1.3,7.7c0.9,2.2,2.2,3.8,4,4.9
		c1.8,1.1,3.8,1.6,5.9,1.6c2.6,0,4.7-0.7,6.5-2.2C836.8,137.9,838,135.7,838.7,132.8L838.7,132.8z M849,144.9v-34.6h25v4.1h-20.4
		V125h19.1v4.1h-19.1v11.8h21.2v4.1H849V144.9z M879.6,133.8l4.3-0.4c0.2,1.7,0.7,3.2,1.4,4.3s1.9,2,3.5,2.7c1.6,0.7,3.3,1,5.3,1
		c1.7,0,3.3-0.3,4.6-0.8s2.3-1.2,3-2.1s1-1.9,1-3s-0.3-2-0.9-2.8c-0.6-0.8-1.7-1.5-3.1-2c-0.9-0.4-3-0.9-6.2-1.7
		c-3.2-0.8-5.4-1.5-6.7-2.2c-1.7-0.9-2.9-1.9-3.7-3.2s-1.2-2.7-1.2-4.3c0-1.8,0.5-3.4,1.5-4.9s2.4-2.7,4.3-3.5
		c1.9-0.8,4-1.2,6.3-1.2c2.6,0,4.8,0.4,6.8,1.2c2,0.8,3.5,2,4.5,3.6c1.1,1.6,1.6,3.4,1.7,5.5l-4.4,0.3c-0.2-2.2-1-3.8-2.4-4.9
		s-3.4-1.7-6-1.7c-2.8,0-4.8,0.5-6.1,1.5s-1.9,2.2-1.9,3.7c0,1.2,0.5,2.3,1.3,3.1c0.9,0.8,3.2,1.6,6.9,2.5c3.7,0.8,6.3,1.6,7.7,2.2
		c2,0.9,3.5,2.1,4.5,3.5s1.4,3.1,1.4,4.9s-0.5,3.6-1.6,5.2c-1.1,1.6-2.6,2.9-4.5,3.8c-2,0.9-4.2,1.4-6.7,1.4c-3.1,0-5.7-0.5-7.8-1.4
		s-3.8-2.3-5-4.1C880.3,138.2,879.7,136.1,879.6,133.8z"/>
	<path class="st1" d="M373.8,12.2h-63.5c-10.5,0-17.1,3.1-21.6,8.2c-3.9,4.4-6.1,10.4-6.1,17.2c0,6.6,3.1,12.7,7.9,17
		c4.5,4,10.4,6.5,19.8,6.5h40.6c4.6,0,7.6,1.5,9.6,3.6c1.7,1.9,2.7,4.1,2.7,6.6c0,2.6-0.9,5.5-2.7,7.6c-1.9,2.1-4.6,3.6-9.6,3.6h-66
		v14h65.9c9.4,0,15.7-2.9,20.2-7.5c4.2-4.4,6.9-10.1,6.9-16.9c0-6.5-2.6-12.2-6.6-16.6c-4.5-4.9-10.9-7.9-20.5-7.9h-41.2
		c-4.2,0-7.2-1.2-9.4-3.4c-1.9-1.9-3-4.4-3-7.2c0-2.7,1-5.1,2.6-7c2-2.2,5-3.6,9.6-3.6h64.4L373.8,12.2L373.8,12.2z M455.1,96.6
		c21.2,0,29.6-8.1,29.6-27V12.2h-14.6v57.4c0,9.1-4.4,13-14.2,13h-39.4c-9.9,0-14.1-4.1-14.1-13V12.2h-14.6v57.4
		c0,18.8,8.4,27,29.6,27H455.1L455.1,96.6z M563,98.3c8.2,0,11.6-2.2,16.4-12.6l26.8-58.4c1.4-3.1,2.4-3.4,3.9-3.4
		c1.7,0,3.5,1,3.5,4.7v67.9h14.6V30.7c0-14.2-7.1-20.3-18.8-20.3c-8.4,0-13,3.7-16.1,10.9l-27,59.9c-1,2.2-1.9,2.7-3.2,2.7
		s-2.2-0.5-3.2-2.7l-27-59.9c-3.2-7.1-7.9-10.9-16.1-10.9c-11.7,0-18.8,6.1-18.8,20.3v65.9h14.6V28.7c0-3.7,1.7-4.7,3.5-4.7
		c1.5,0,2.4,0.2,3.9,3.4l26.8,58.4C551.4,96.1,554.8,98.3,563,98.3L563,98.3z M706.5,98.3c8.2,0,11.6-2.2,16.4-12.6l26.8-58.4
		c1.4-3.1,2.4-3.4,3.9-3.4c1.7,0,3.5,1,3.5,4.7v67.9h14.6V30.7c0-14.2-7.1-20.3-18.8-20.3c-8.4,0-13,3.7-16.1,10.9l-27,59.9
		c-1,2.2-1.9,2.7-3.2,2.7c-1.4,0-2.2-0.5-3.2-2.7l-27-59.9c-3.2-7.1-7.9-10.9-16.1-10.9c-11.7,0-18.8,6.1-18.8,20.3v65.9H656V28.7
		c0-3.7,1.7-4.7,3.5-4.7c1.5,0,2.4,0.2,3.9,3.4l26.8,58.4C694.9,96.1,698.3,98.3,706.5,98.3L706.5,98.3z M785.4,12.2v84.4H800V12.2
		H785.4L785.4,12.2z M810.4,12.2v14.4h41.1v70h14.6v-70h41.1V12.2H810.4z"/>
</g>
</svg>
